<svg width="147" height="20" viewBox="0 0 147 20" fill="none" xmlns="http://www.w3.org/2000/svg">
<path d="M0.5 10C0.5 4.75496 4.76746 0.5 10.0354 0.5H136.965C142.233 0.5 146.5 4.75496 146.5 10C146.5 15.245 142.233 19.5 136.965 19.5H10.0354C4.76747 19.5 0.5 15.245 0.5 10Z" fill="white"/>
<path d="M0.5 10C0.5 4.75496 4.76746 0.5 10.0354 0.5H136.965C142.233 0.5 146.5 4.75496 146.5 10C146.5 15.245 142.233 19.5 136.965 19.5H10.0354C4.76747 19.5 0.5 15.245 0.5 10Z" fill="url(#paint0_linear_129_158)"/>
<path d="M0.5 10C0.5 4.75496 4.76746 0.5 10.0354 0.5H136.965C142.233 0.5 146.5 4.75496 146.5 10C146.5 15.245 142.233 19.5 136.965 19.5H10.0354C4.76747 19.5 0.5 15.245 0.5 10Z" stroke="#141C2E"/>
<path d="M14.186 10.9251V12.7593H16.0202V10.9251H14.186Z" fill="#FF3270"/>
<path d="M17.8706 10.9251V12.7593H19.7048V10.9251H17.8706Z" fill="#861FFF"/>
<path d="M14.186 7.24078V9.07497H16.0202V7.24078H14.186Z" fill="#097EFF"/>
<path fill-rule="evenodd" clip-rule="evenodd" d="M12.9028 6.77179C12.9028 6.32194 13.2675 5.95728 13.7173 5.95728C14.1701 5.95728 15.2555 5.95728 16.1093 5.95728C16.7537 5.95728 17.2757 6.47963 17.2757 7.12398V9.6698H19.8216C20.4659 9.6698 20.9883 10.1922 20.9883 10.8365C20.9883 11.6337 20.9883 12.4309 20.9883 13.2282C20.9883 13.678 20.6236 14.0427 20.1737 14.0427H17.3038H16.5873H13.7173C13.2675 14.0427 12.9028 13.678 12.9028 13.2282V9.71653V9.64174V6.77179ZM14.1862 7.24066V9.07485H16.0204V7.24066H14.1862ZM14.1862 12.7593V10.9251H16.0204V12.7593H14.1862ZM17.8707 12.7593V10.9251H19.7049V12.7593H17.8707Z" fill="black"/>
<path d="M18.6138 8.35469L20.7794 6.18906M20.7794 6.18906V7.66074M20.7794 6.18906L19.2722 6.18906" stroke="#FFD702" stroke-width="0.686298" stroke-linecap="round" stroke-linejoin="round"/>
<path d="M31.6084 13.9838C30.8547 13.9838 30.1897 13.802 29.6133 13.4385C29.0369 13.0661 28.5847 12.5429 28.2566 11.869C27.9374 11.1863 27.7778 10.3749 27.7778 9.43502C27.7778 8.49512 27.9374 7.69266 28.2566 7.02763C28.5847 6.36261 29.0369 5.85276 29.6133 5.49808C30.1897 5.1434 30.8547 4.96606 31.6084 4.96606C32.3709 4.96606 33.0404 5.1434 33.6167 5.49808C34.1931 5.85276 34.6409 6.36261 34.9601 7.02763C35.2882 7.69266 35.4522 8.49512 35.4522 9.43502C35.4522 10.3749 35.2882 11.1863 34.9601 11.869C34.6409 12.5429 34.1931 13.0661 33.6167 13.4385C33.0404 13.802 32.3709 13.9838 31.6084 13.9838ZM31.6084 12.6404C32.2911 12.6404 32.8364 12.3523 33.2443 11.7759C33.6522 11.1907 33.8562 10.4104 33.8562 9.43502C33.8562 8.45965 33.6522 7.69709 33.2443 7.14734C32.8364 6.58872 32.2911 6.30941 31.6084 6.30941C30.9256 6.30941 30.3803 6.58872 29.9724 7.14734C29.5645 7.69709 29.3606 8.45965 29.3606 9.43502C29.3606 10.4104 29.5645 11.1907 29.9724 11.7759C30.3803 12.3523 30.9256 12.6404 31.6084 12.6404Z" fill="#E6EAF2"/>
<path d="M37.0593 16.4045V7.29364H38.3228L38.4292 7.98527H38.4824C38.7573 7.75473 39.0632 7.55522 39.4002 7.38675C39.746 7.21828 40.0962 7.13404 40.4509 7.13404C41.2667 7.13404 41.8962 7.43552 42.3396 8.03847C42.7918 8.64143 43.0179 9.44832 43.0179 10.4592C43.0179 11.204 42.8849 11.8424 42.6189 12.3744C42.3529 12.8976 42.0071 13.2966 41.5814 13.5715C41.1647 13.8463 40.7125 13.9838 40.2248 13.9838C39.9411 13.9838 39.6573 13.9217 39.3736 13.7976C39.0898 13.6646 38.8149 13.4872 38.5489 13.2656L38.5888 14.3562V16.4045H37.0593ZM39.9056 12.7202C40.3401 12.7202 40.7036 12.5296 40.9962 12.1483C41.2888 11.767 41.4351 11.2084 41.4351 10.4725C41.4351 9.8163 41.3243 9.30645 41.1026 8.9429C40.881 8.57936 40.5218 8.39758 40.0253 8.39758C39.5642 8.39758 39.0854 8.64143 38.5888 9.12911V12.1749C38.8282 12.37 39.0588 12.5119 39.2805 12.6005C39.5021 12.6803 39.7105 12.7202 39.9056 12.7202Z" fill="#E6EAF2"/>
<path d="M47.3599 13.9838C46.7569 13.9838 46.2116 13.8508 45.7239 13.5848C45.2362 13.3099 44.8505 12.9197 44.5668 12.4143C44.283 11.9 44.1412 11.2838 44.1412 10.5656C44.1412 9.8562 44.283 9.24438 44.5668 8.7301C44.8594 8.21581 45.2362 7.82123 45.6973 7.54635C46.1584 7.27148 46.6417 7.13404 47.1471 7.13404C47.7412 7.13404 48.2377 7.26704 48.6367 7.53305C49.0357 7.7902 49.3372 8.15374 49.5412 8.62369C49.7451 9.08478 49.8471 9.62123 49.8471 10.2331C49.8471 10.5523 49.8249 10.8005 49.7806 10.9779H45.6308C45.7018 11.5542 45.9101 12.002 46.2559 12.3212C46.6018 12.6404 47.0362 12.8 47.5594 12.8C47.8431 12.8 48.1047 12.7601 48.3441 12.6803C48.5924 12.5917 48.8362 12.472 49.0756 12.3212L49.5944 13.2789C49.284 13.4828 48.9382 13.6513 48.5569 13.7843C48.1756 13.9173 47.7766 13.9838 47.3599 13.9838ZM45.6175 9.94044H48.517C48.517 9.43502 48.4062 9.04044 48.1845 8.7567C47.9628 8.46409 47.6303 8.31778 47.187 8.31778C46.8057 8.31778 46.4643 8.45965 46.1628 8.7434C45.8702 9.01827 45.6885 9.41729 45.6175 9.94044Z" fill="#E6EAF2"/>
<path d="M51.3079 13.8242V7.29364H52.5715L52.6779 8.17148H52.7311C53.0237 7.88773 53.3429 7.64389 53.6887 7.43995C54.0345 7.23601 54.4291 7.13404 54.8725 7.13404C55.573 7.13404 56.0828 7.36015 56.402 7.81236C56.7212 8.26458 56.8808 8.903 56.8808 9.72763V13.8242H55.3513V9.92714C55.3513 9.38625 55.2715 9.00497 55.1119 8.7833C54.9523 8.56162 54.6907 8.45079 54.3272 8.45079C54.0434 8.45079 53.7907 8.52172 53.569 8.66359C53.3562 8.7966 53.1124 8.99611 52.8375 9.26212V13.8242H51.3079Z" fill="#E6EAF2"/>
<path d="M61.4132 13.8242V7.29364H62.9427V13.8242H61.4132ZM62.1846 6.1498C61.9097 6.1498 61.6881 6.07 61.5196 5.91039C61.3511 5.75079 61.2669 5.53798 61.2669 5.27197C61.2669 5.01483 61.3511 4.80645 61.5196 4.64685C61.6881 4.48724 61.9097 4.40744 62.1846 4.40744C62.4595 4.40744 62.6812 4.48724 62.8496 4.64685C63.0181 4.80645 63.1024 5.01483 63.1024 5.27197C63.1024 5.53798 63.0181 5.75079 62.8496 5.91039C62.6812 6.07 62.4595 6.1498 62.1846 6.1498Z" fill="#E6EAF2"/>
<path d="M64.8942 13.8242V7.29364H66.1577L66.2641 8.17148H66.3173C66.6099 7.88773 66.9292 7.64389 67.275 7.43995C67.6208 7.23601 68.0154 7.13404 68.4587 7.13404C69.1592 7.13404 69.6691 7.36015 69.9883 7.81236C70.3075 8.26458 70.4671 8.903 70.4671 9.72763V13.8242H68.9375V9.92714C68.9375 9.38625 68.8577 9.00497 68.6981 8.7833C68.5385 8.56162 68.2769 8.45079 67.9134 8.45079C67.6296 8.45079 67.3769 8.52172 67.1553 8.66359C66.9425 8.7966 66.6986 8.99611 66.4237 9.26212V13.8242H64.8942Z" fill="#E6EAF2"/>
<path d="M75.1324 13.8242V5.12567H76.6753V8.62369H80.1999V5.12567H81.7428V13.8242H80.1999V9.96704H76.6753V13.8242H75.1324Z" fill="#E6EAF2"/>
<path d="M83.9518 13.8242V5.12567H89.2055V6.42911H85.4947V8.8897H88.6602V10.1932H85.4947V13.8242H83.9518Z" fill="#E6EAF2"/>
<path d="M95.935 13.9838C95.3498 13.9838 94.7823 13.873 94.2326 13.6513C93.6917 13.4296 93.2129 13.1148 92.7961 12.7069L93.7005 11.6562C94.0109 11.9488 94.3656 12.1882 94.7646 12.3744C95.1636 12.5518 95.5626 12.6404 95.9616 12.6404C96.4582 12.6404 96.835 12.5385 97.0922 12.3345C97.3493 12.1306 97.4779 11.8601 97.4779 11.5232C97.4779 11.1597 97.3493 10.8981 97.0922 10.7385C96.8439 10.5789 96.5247 10.4148 96.1345 10.2464L94.9375 9.72763C94.6537 9.6035 94.3744 9.44389 94.0995 9.24882C93.8335 9.05374 93.6119 8.80547 93.4345 8.50399C93.2661 8.20251 93.1818 7.83896 93.1818 7.41335C93.1818 6.95227 93.306 6.53995 93.5542 6.1764C93.8114 5.80399 94.1572 5.51138 94.5917 5.29857C95.035 5.0769 95.5404 4.96606 96.1079 4.96606C96.6133 4.96606 97.101 5.06803 97.571 5.27197C98.0409 5.46704 98.4444 5.73305 98.7813 6.07L97.9966 7.05424C97.7217 6.82369 97.4291 6.64192 97.1188 6.50892C96.8173 6.37591 96.4803 6.30941 96.1079 6.30941C95.7 6.30941 95.3675 6.40251 95.1104 6.58872C94.8621 6.76606 94.738 7.01433 94.738 7.33355C94.738 7.55522 94.8 7.74143 94.9242 7.89217C95.0572 8.03404 95.2301 8.15818 95.4429 8.26458C95.6557 8.36212 95.8818 8.45965 96.1212 8.55719L97.305 9.04931C97.8193 9.27098 98.2404 9.56359 98.5685 9.92714C98.8966 10.2818 99.0606 10.7739 99.0606 11.4035C99.0606 11.8734 98.9365 12.3035 98.6882 12.6936C98.4399 13.0838 98.0808 13.3986 97.6109 13.638C97.1498 13.8685 96.5912 13.9838 95.935 13.9838Z" fill="#E6EAF2"/>
<path d="M100.509 16.4045V7.29364H101.773L101.879 7.98527H101.932C102.207 7.75473 102.513 7.55522 102.85 7.38675C103.196 7.21828 103.546 7.13404 103.901 7.13404C104.717 7.13404 105.346 7.43552 105.79 8.03847C106.242 8.64143 106.468 9.44832 106.468 10.4592C106.468 11.204 106.335 11.8424 106.069 12.3744C105.803 12.8976 105.457 13.2966 105.032 13.5715C104.615 13.8463 104.163 13.9838 103.675 13.9838C103.391 13.9838 103.107 13.9217 102.824 13.7976C102.54 13.6646 102.265 13.4872 101.999 13.2656L102.039 14.3562V16.4045H100.509ZM103.356 12.7202C103.79 12.7202 104.154 12.5296 104.446 12.1483C104.739 11.767 104.885 11.2084 104.885 10.4725C104.885 9.8163 104.774 9.30645 104.553 8.9429C104.331 8.57936 103.972 8.39758 103.475 8.39758C103.014 8.39758 102.535 8.64143 102.039 9.12911V12.1749C102.278 12.37 102.509 12.5119 102.731 12.6005C102.952 12.6803 103.161 12.7202 103.356 12.7202Z" fill="#E6EAF2"/>
<path d="M109.444 13.9838C108.876 13.9838 108.411 13.8064 108.047 13.4518C107.693 13.0971 107.515 12.636 107.515 12.0685C107.515 11.368 107.821 10.8271 108.433 10.4459C109.045 10.0557 110.02 9.7897 111.359 9.64783C111.35 9.30202 111.257 9.00497 111.08 8.7567C110.911 8.49956 110.605 8.37098 110.162 8.37098C109.843 8.37098 109.528 8.43305 109.218 8.55719C108.916 8.68133 108.619 8.83207 108.326 9.00941L107.768 7.98527C108.131 7.75473 108.539 7.55522 108.992 7.38675C109.453 7.21828 109.94 7.13404 110.455 7.13404C111.27 7.13404 111.878 7.37788 112.277 7.86557C112.685 8.34438 112.889 9.04044 112.889 9.95374V13.8242H111.625L111.519 13.106H111.465C111.173 13.3542 110.858 13.5626 110.521 13.7311C110.193 13.8996 109.834 13.9838 109.444 13.9838ZM109.936 12.7867C110.202 12.7867 110.441 12.7247 110.654 12.6005C110.876 12.4675 111.111 12.2902 111.359 12.0685V10.6055C110.472 10.7207 109.856 10.8936 109.51 11.1242C109.164 11.3459 108.992 11.6207 108.992 11.9488C108.992 12.2414 109.08 12.4542 109.258 12.5872C109.435 12.7202 109.661 12.7867 109.936 12.7867Z" fill="#E6EAF2"/>
<path d="M117.446 13.9838C116.852 13.9838 116.315 13.8508 115.836 13.5848C115.366 13.3099 114.989 12.9197 114.706 12.4143C114.431 11.9 114.293 11.2838 114.293 10.5656C114.293 9.83847 114.444 9.22222 114.746 8.7168C115.047 8.20251 115.446 7.81236 115.943 7.54635C116.448 7.27148 116.989 7.13404 117.565 7.13404C117.982 7.13404 118.346 7.20497 118.656 7.34685C118.966 7.48872 119.241 7.66163 119.481 7.86557L118.736 8.8631C118.567 8.71236 118.394 8.59709 118.217 8.51729C118.04 8.42862 117.849 8.38428 117.645 8.38428C117.122 8.38428 116.692 8.58379 116.355 8.98281C116.027 9.38182 115.863 9.90941 115.863 10.5656C115.863 11.2129 116.022 11.736 116.342 12.135C116.67 12.534 117.091 12.7335 117.605 12.7335C117.862 12.7335 118.102 12.6803 118.323 12.5739C118.554 12.4587 118.762 12.3257 118.949 12.1749L119.574 13.1858C119.272 13.4518 118.935 13.6513 118.563 13.7843C118.19 13.9173 117.818 13.9838 117.446 13.9838Z" fill="#E6EAF2"/>
<path d="M123.331 13.9838C122.728 13.9838 122.183 13.8508 121.695 13.5848C121.207 13.3099 120.822 12.9197 120.538 12.4143C120.254 11.9 120.112 11.2838 120.112 10.5656C120.112 9.8562 120.254 9.24438 120.538 8.7301C120.831 8.21581 121.207 7.82123 121.669 7.54635C122.13 7.27148 122.613 7.13404 123.118 7.13404C123.712 7.13404 124.209 7.26704 124.608 7.53305C125.007 7.7902 125.308 8.15374 125.512 8.62369C125.716 9.08478 125.818 9.62123 125.818 10.2331C125.818 10.5523 125.796 10.8005 125.752 10.9779H121.602C121.673 11.5542 121.881 12.002 122.227 12.3212C122.573 12.6404 123.007 12.8 123.531 12.8C123.814 12.8 124.076 12.7601 124.315 12.6803C124.564 12.5917 124.807 12.472 125.047 12.3212L125.566 13.2789C125.255 13.4828 124.909 13.6513 124.528 13.7843C124.147 13.9173 123.748 13.9838 123.331 13.9838ZM121.589 9.94044H124.488C124.488 9.43502 124.377 9.04044 124.156 8.7567C123.934 8.46409 123.602 8.31778 123.158 8.31778C122.777 8.31778 122.436 8.45965 122.134 8.7434C121.841 9.01827 121.66 9.41729 121.589 9.94044Z" fill="#E6EAF2"/>
<path d="M129.101 13.9838C128.658 13.9838 128.215 13.8996 127.771 13.7311C127.328 13.5537 126.947 13.3365 126.627 13.0794L127.346 12.0951C127.638 12.3168 127.931 12.4941 128.223 12.6271C128.516 12.7601 128.826 12.8266 129.155 12.8266C129.509 12.8266 129.771 12.7513 129.939 12.6005C130.108 12.4498 130.192 12.2636 130.192 12.0419C130.192 11.8557 130.121 11.705 129.979 11.5897C129.846 11.4656 129.673 11.3592 129.46 11.2705C129.248 11.173 129.026 11.0798 128.795 10.9912C128.512 10.8848 128.228 10.7562 127.944 10.6055C127.669 10.4459 127.443 10.2464 127.266 10.0069C127.089 9.75867 127 9.45276 127 9.08921C127 8.51286 127.213 8.0429 127.638 7.67936C128.064 7.31581 128.64 7.13404 129.367 7.13404C129.828 7.13404 130.241 7.21384 130.604 7.37345C130.968 7.53305 131.283 7.71483 131.549 7.91877L130.844 8.8498C130.613 8.68133 130.378 8.54832 130.139 8.45079C129.908 8.34438 129.664 8.29118 129.407 8.29118C129.079 8.29118 128.835 8.36212 128.676 8.50399C128.516 8.63699 128.436 8.80547 128.436 9.00941C128.436 9.26655 128.569 9.46162 128.835 9.59463C129.101 9.72763 129.412 9.8562 129.766 9.98034C130.068 10.0867 130.36 10.2198 130.644 10.3794C130.928 10.5301 131.163 10.7296 131.349 10.9779C131.544 11.2262 131.642 11.5542 131.642 11.9621C131.642 12.5207 131.424 12.9996 130.99 13.3986C130.556 13.7887 129.926 13.9838 129.101 13.9838Z" fill="#E6EAF2"/>
<defs>
<linearGradient id="paint0_linear_129_158" x1="-7.33269e-08" y1="10" x2="60.1443" y2="10" gradientUnits="userSpaceOnUse">
<stop stop-color="#172033"/>
<stop offset="1" stop-color="#0B0F19"/>
</linearGradient>
</defs>
</svg>
