<svg width="101" height="20" viewBox="0 0 101 20" fill="none" xmlns="http://www.w3.org/2000/svg">
<path d="M0.821045 10C0.821045 4.75701 5.10613 0.5 10.4004 0.5H90.1382C95.4324 0.5 99.7175 4.75702 99.7175 10C99.7175 15.243 95.4324 19.5 90.1382 19.5H10.4004C5.10615 19.5 0.821045 15.243 0.821045 10Z" fill="url(#paint0_linear_402_82)" stroke="#141C2E"/>
<path d="M30.5859 14.1252V5.98798H33.149C33.7545 5.98798 34.2937 6.06678 34.7665 6.22438C35.2393 6.38198 35.6126 6.64327 35.8863 7.00824C36.16 7.37321 36.2969 7.8709 36.2969 8.5013C36.2969 9.09852 36.16 9.59206 35.8863 9.98191C35.6126 10.3718 35.2434 10.6621 34.7789 10.8529C34.3144 11.0436 33.7877 11.139 33.1988 11.139H32.0292V14.1252H30.5859ZM32.0292 9.98191H33.0868C34.2812 9.98191 34.8785 9.48838 34.8785 8.5013C34.8785 7.98702 34.7209 7.63449 34.4057 7.44371C34.0988 7.24464 33.6425 7.1451 33.037 7.1451H32.0292V9.98191ZM38.71 14.2745C38.1791 14.2745 37.7436 14.1086 37.4035 13.7768C37.0718 13.445 36.9059 13.0137 36.9059 12.4828C36.9059 11.8275 37.192 11.3215 37.7644 10.9648C38.3367 10.5999 39.2491 10.351 40.5016 10.2183C40.4933 9.89482 40.4062 9.61694 40.2404 9.38469C40.0828 9.14414 39.7966 9.02387 39.3818 9.02387C39.0832 9.02387 38.7888 9.08193 38.4985 9.19806C38.2164 9.31419 37.9386 9.4552 37.6648 9.62109L37.1423 8.66305C37.4823 8.44738 37.8639 8.26075 38.2869 8.10315C38.7183 7.94555 39.1745 7.86675 39.6556 7.86675C40.4187 7.86675 40.9869 8.09485 41.3601 8.55107C41.7417 8.99898 41.9325 9.65012 41.9325 10.5045V14.1252H40.7505L40.6509 13.4533H40.6012C40.3274 13.6855 40.033 13.8805 39.7178 14.0381C39.4109 14.1957 39.0749 14.2745 38.71 14.2745ZM39.1703 13.1547C39.4192 13.1547 39.6431 13.0966 39.8422 12.9805C40.0496 12.8561 40.2694 12.6902 40.5016 12.4828V11.1142C39.6722 11.222 39.0957 11.3837 38.7722 11.5994C38.4487 11.8068 38.2869 12.0639 38.2869 12.3708C38.2869 12.6445 38.3699 12.8436 38.5358 12.968C38.7017 13.0925 38.9132 13.1547 39.1703 13.1547ZM43.6448 16.5389V8.01605H44.8268L44.9264 8.66305H44.9761C45.2333 8.44738 45.5195 8.26075 45.8347 8.10315C46.1582 7.94555 46.4858 7.86675 46.8176 7.86675C47.5807 7.86675 48.1696 8.14877 48.5844 8.71281C49.0074 9.27686 49.2189 10.0317 49.2189 10.9773C49.2189 11.674 49.0945 12.2713 48.8457 12.769C48.5968 13.2583 48.2733 13.6316 47.8752 13.8888C47.4853 14.1459 47.0623 14.2745 46.6061 14.2745C46.3406 14.2745 46.0752 14.2164 45.8098 14.1003C45.5443 13.9758 45.2872 13.81 45.0384 13.6026L45.0757 14.6228V16.5389H43.6448ZM46.3075 13.0925C46.7139 13.0925 47.054 12.9141 47.3277 12.5574C47.6014 12.2008 47.7383 11.6782 47.7383 10.9897C47.7383 10.3759 47.6346 9.89897 47.4273 9.55888C47.2199 9.2188 46.8839 9.04875 46.4194 9.04875C45.9881 9.04875 45.5402 9.27686 45.0757 9.73307V12.5823C45.2996 12.7648 45.5153 12.8975 45.7227 12.9805C45.93 13.0551 46.125 13.0925 46.3075 13.0925ZM53.2807 14.2745C52.7167 14.2745 52.2065 14.15 51.7503 13.9012C51.2941 13.6441 50.9333 13.2791 50.6679 12.8063C50.4024 12.3252 50.2697 11.7487 50.2697 11.0768C50.2697 10.4132 50.4024 9.8409 50.6679 9.35981C50.9416 8.87871 51.2941 8.50959 51.7254 8.25245C52.1568 7.99532 52.6088 7.86675 53.0816 7.86675C53.6374 7.86675 54.1019 7.99117 54.4752 8.24001C54.8484 8.48056 55.1304 8.82065 55.3212 9.26027C55.512 9.6916 55.6074 10.1934 55.6074 10.7658C55.6074 11.0644 55.5867 11.2966 55.5452 11.4625H51.6632C51.7296 12.0017 51.9245 12.4206 52.248 12.7192C52.5715 13.0178 52.9779 13.1671 53.4673 13.1671C53.7328 13.1671 53.9775 13.1298 54.2014 13.0551C54.4337 12.9722 54.6618 12.8602 54.8857 12.7192L55.371 13.615C55.0807 13.8058 54.7572 13.9634 54.4005 14.0878C54.0438 14.2122 53.6706 14.2745 53.2807 14.2745ZM51.6508 10.492H54.3632C54.3632 10.0192 54.2595 9.65012 54.0521 9.38469C53.8447 9.11096 53.5337 8.9741 53.119 8.9741C52.7623 8.9741 52.4429 9.10682 52.1609 9.37225C51.8872 9.62939 51.7171 10.0027 51.6508 10.492ZM56.974 14.1252V8.01605H58.156L58.2555 9.09852H58.3053C58.521 8.70037 58.7822 8.39761 59.0892 8.19024C59.3961 7.97458 59.7113 7.86675 60.0348 7.86675C60.3251 7.86675 60.5573 7.90822 60.7315 7.99117L60.4827 9.23539C60.3748 9.20221 60.2753 9.17732 60.1841 9.16073C60.0928 9.14414 59.9808 9.13585 59.8481 9.13585C59.6076 9.13585 59.3546 9.23124 59.0892 9.42202C58.8237 9.6045 58.5956 9.928 58.4048 10.3925V14.1252H56.974ZM64.1064 16.5389V8.01605H65.2884L65.3879 8.66305H65.4377C65.6948 8.44738 65.981 8.26075 66.2962 8.10315C66.6197 7.94555 66.9473 7.86675 67.2791 7.86675C68.0422 7.86675 68.6311 8.14877 69.0459 8.71281C69.4689 9.27686 69.6804 10.0317 69.6804 10.9773C69.6804 11.674 69.556 12.2713 69.3072 12.769C69.0583 13.2583 68.7348 13.6316 68.3367 13.8888C67.9468 14.1459 67.5238 14.2745 67.0676 14.2745C66.8022 14.2745 66.5367 14.2164 66.2713 14.1003C66.0059 13.9758 65.7487 13.81 65.4999 13.6026L65.5372 14.6228V16.5389H64.1064ZM66.769 13.0925C67.1754 13.0925 67.5155 12.9141 67.7892 12.5574C68.063 12.2008 68.1998 11.6782 68.1998 10.9897C68.1998 10.3759 68.0961 9.89897 67.8888 9.55888C67.6814 9.2188 67.3455 9.04875 66.881 9.04875C66.4496 9.04875 66.0017 9.27686 65.5372 9.73307V12.5823C65.7612 12.7648 65.9768 12.8975 66.1842 12.9805C66.3916 13.0551 66.5865 13.0925 66.769 13.0925ZM72.4642 14.2745C71.9333 14.2745 71.4978 14.1086 71.1578 13.7768C70.826 13.445 70.6601 13.0137 70.6601 12.4828C70.6601 11.8275 70.9462 11.3215 71.5186 10.9648C72.0909 10.5999 73.0033 10.351 74.2558 10.2183C74.2476 9.89482 74.1605 9.61694 73.9946 9.38469C73.837 9.14414 73.5508 9.02387 73.1361 9.02387C72.8374 9.02387 72.543 9.08193 72.2527 9.19806C71.9706 9.31419 71.6928 9.4552 71.419 9.62109L70.8965 8.66305C71.2366 8.44738 71.6181 8.26075 72.0411 8.10315C72.4725 7.94555 72.9287 7.86675 73.4098 7.86675C74.1729 7.86675 74.7411 8.09485 75.1144 8.55107C75.4959 8.99898 75.6867 9.65012 75.6867 10.5045V14.1252H74.5047L74.4052 13.4533H74.3554C74.0817 13.6855 73.7872 13.8805 73.472 14.0381C73.1651 14.1957 72.8291 14.2745 72.4642 14.2745ZM72.9245 13.1547C73.1734 13.1547 73.3973 13.0966 73.5964 12.9805C73.8038 12.8561 74.0236 12.6902 74.2558 12.4828V11.1142C73.4264 11.222 72.8499 11.3837 72.5264 11.5994C72.2029 11.8068 72.0411 12.0639 72.0411 12.3708C72.0411 12.6445 72.1241 12.8436 72.29 12.968C72.4559 13.0925 72.6674 13.1547 72.9245 13.1547ZM79.5267 16.8251C79.0456 16.8251 78.6101 16.767 78.2202 16.6509C77.8387 16.5348 77.5359 16.3564 77.312 16.1159C77.0963 15.8836 76.9885 15.5892 76.9885 15.2325C76.9885 14.7265 77.2788 14.291 77.8594 13.9261V13.8763C77.7018 13.7768 77.5691 13.6441 77.4613 13.4782C77.3617 13.3123 77.312 13.1049 77.312 12.8561C77.312 12.6155 77.3783 12.3998 77.511 12.2091C77.652 12.01 77.8096 11.8482 77.9838 11.7238V11.674C77.7765 11.5164 77.5898 11.2966 77.4239 11.0146C77.2663 10.7326 77.1875 10.4132 77.1875 10.0566C77.1875 9.58377 77.2995 9.18562 77.5235 8.86212C77.7474 8.53862 78.0419 8.29393 78.4069 8.12803C78.7801 7.95384 79.1783 7.86675 79.6013 7.86675C79.7672 7.86675 79.9248 7.88334 80.0741 7.91652C80.2317 7.9414 80.3727 7.97458 80.4971 8.01605H82.687V9.07364H81.5672C81.6667 9.18976 81.7497 9.33907 81.816 9.52155C81.8824 9.69575 81.9155 9.89067 81.9155 10.1063C81.9155 10.5543 81.8119 10.9358 81.6045 11.251C81.3971 11.5579 81.1193 11.7902 80.7709 11.9478C80.4225 12.1054 80.0326 12.1842 79.6013 12.1842C79.4686 12.1842 79.3317 12.1717 79.1907 12.1468C79.0497 12.122 78.9087 12.0805 78.7677 12.0224C78.6764 12.1054 78.6018 12.1883 78.5437 12.2713C78.494 12.3542 78.4691 12.4662 78.4691 12.6072C78.4691 12.7814 78.5396 12.9183 78.6806 13.0178C78.8299 13.1173 79.0912 13.1671 79.4644 13.1671H80.5469C81.2851 13.1671 81.8409 13.2874 82.2142 13.5279C82.5957 13.7602 82.7865 14.1417 82.7865 14.6726C82.7865 15.0708 82.6538 15.4316 82.3884 15.7551C82.1229 16.0869 81.7455 16.3482 81.2561 16.5389C80.7667 16.7297 80.1902 16.8251 79.5267 16.8251ZM79.6013 11.2883C79.8916 11.2883 80.1405 11.1805 80.3478 10.9648C80.5552 10.7492 80.6589 10.4464 80.6589 10.0566C80.6589 9.67501 80.5552 9.38054 80.3478 9.17317C80.1488 8.95751 79.8999 8.84968 79.6013 8.84968C79.3027 8.84968 79.0497 8.95336 78.8423 9.16073C78.635 9.3681 78.5313 9.66671 78.5313 10.0566C78.5313 10.4464 78.635 10.7492 78.8423 10.9648C79.0497 11.1805 79.3027 11.2883 79.6013 11.2883ZM79.7506 15.8919C80.24 15.8919 80.6382 15.7924 80.9451 15.5933C81.252 15.3943 81.4054 15.1661 81.4054 14.909C81.4054 14.6685 81.31 14.5067 81.1193 14.4238C80.9368 14.3408 80.6713 14.2993 80.323 14.2993H79.4893C79.1575 14.2993 78.8797 14.2703 78.6557 14.2122C78.3405 14.4528 78.1829 14.7224 78.1829 15.021C78.1829 15.2947 78.3239 15.5062 78.6059 15.6555C78.888 15.8131 79.2695 15.8919 79.7506 15.8919ZM86.2816 14.2745C85.7175 14.2745 85.2074 14.15 84.7512 13.9012C84.295 13.6441 83.9342 13.2791 83.6687 12.8063C83.4033 12.3252 83.2706 11.7487 83.2706 11.0768C83.2706 10.4132 83.4033 9.8409 83.6687 9.35981C83.9425 8.87871 84.295 8.50959 84.7263 8.25245C85.1576 7.99532 85.6097 7.86675 86.0825 7.86675C86.6383 7.86675 87.1028 7.99117 87.476 8.24001C87.8493 8.48056 88.1313 8.82065 88.3221 9.26027C88.5129 9.6916 88.6083 10.1934 88.6083 10.7658C88.6083 11.0644 88.5875 11.2966 88.5461 11.4625H84.6641C84.7305 12.0017 84.9254 12.4206 85.2489 12.7192C85.5724 13.0178 85.9788 13.1671 86.4682 13.1671C86.7336 13.1671 86.9783 13.1298 87.2023 13.0551C87.4346 12.9722 87.6627 12.8602 87.8866 12.7192L88.3719 13.615C88.0815 13.8058 87.758 13.9634 87.4014 14.0878C87.0447 14.2122 86.6714 14.2745 86.2816 14.2745ZM84.6517 10.492H87.364C87.364 10.0192 87.2604 9.65012 87.053 9.38469C86.8456 9.11096 86.5346 8.9741 86.1198 8.9741C85.7632 8.9741 85.4438 9.10682 85.1618 9.37225C84.8881 9.62939 84.718 10.0027 84.6517 10.492Z" fill="#E6EAF2"/>
<path d="M14.2959 6.06158H19.811L20.6362 7.12839L21.6426 8.39649V14.6564H14.2959V6.06158Z" fill="#141C2C"/>
<path fill-rule="evenodd" clip-rule="evenodd" d="M19.4508 5.36273C19.7339 5.36273 20.017 5.47011 20.2317 5.64582L21.6765 6.83674C21.9693 7.08078 22.1157 7.42244 22.1157 7.78362V13.8554C22.1157 14.5387 21.5691 15.0853 20.8955 15.0853H14.98C14.2967 15.0853 13.75 14.5387 13.75 13.8554V6.5927C13.75 5.90938 14.2967 5.36273 14.98 5.36273H19.441H19.4508ZM19.5582 8.90621C18.8163 8.90621 18.2306 8.32051 18.2306 7.57863V6.89531C18.2333 6.81338 18.2192 6.73176 18.1894 6.6554C18.1596 6.57905 18.1145 6.50955 18.057 6.45113C17.9995 6.39271 17.9307 6.34658 17.8548 6.31554C17.779 6.2845 17.6976 6.2692 17.6156 6.27057H14.98C14.9385 6.27048 14.8975 6.2789 14.8595 6.29532C14.8214 6.31173 14.7872 6.33578 14.7588 6.36599C14.7304 6.39619 14.7085 6.43189 14.6945 6.47089C14.6805 6.50989 14.6747 6.55135 14.6774 6.5927V13.8554C14.6774 14.0311 14.8043 14.1775 14.9702 14.1775H20.8955C21.0712 14.1775 21.1981 14.0311 21.1981 13.8554V9.54072C21.2008 9.45961 21.187 9.37881 21.1578 9.30311C21.1286 9.22741 21.0844 9.15837 21.0279 9.10008C20.9715 9.0418 20.9039 8.99547 20.8291 8.96384C20.7544 8.93221 20.6741 8.91593 20.5929 8.91597H19.5484H19.5582V8.90621Z" fill="#E5E7EB"/>
<defs>
<linearGradient id="paint0_linear_402_82" x1="0.321045" y1="10" x2="41.1932" y2="10" gradientUnits="userSpaceOnUse">
<stop stop-color="#172033"/>
<stop offset="1" stop-color="#0B0F19"/>
</linearGradient>
</defs>
</svg>
